<?xml version="1.0" encoding="UTF-8" ?>
<svg version="1.1" xmlns="http://www.w3.org/2000/svg">
  <g id="upper-jaw">
    <path
      fill="var(--theme-color-detail-100)"
      d="M10,80 L20,60 L30,80 L40,50 L50,80 L60,50 L70,80 L80,60 L90,80 L100,40 L80,10 L50,0
      L20,10 L0,40 Z"
    />
    <path
      fill="var(--theme-color-detail-200)"
      d="M10,80 L15,45 L40,20 L75,10 L50,0 L20,10 L0,40 Z"
    />
    <rect
      width="15"
      height="15"
      x="20"
      y="30"
      transform-origin="27.5 37.5"
      transform="rotate(-45)"
      fill="currentColor"
    />
    <rect
      width="15"
      height="15"
      x="65"
      y="30"
      transform-origin="72.5 37.5"
      transform="rotate(-45)"
      fill="currentColor"
    />
  </g>
  <g id="lower-jaw">
    <path
      fill="var(--theme-color-detail-100)"
      d="M20,50 L80,50 L90,40 L100,0 L75,30 L70,0 L50,30 L30,0 L25,30 L0,0 L10,40 Z"
    />
    <path fill="var(--theme-color-detail-200)" d="M50,30 L70,0 L65,25 Z" />
    <path fill="var(--theme-color-detail-200)" d="M75,30 L100,0 L85,25 Z" />
    <path fill="var(--theme-color-detail-200)" d="M25,30 L30,0 L35,10 L30,25 Z" />
  </g>
</svg>
